# Blender 3.3.2
# www.blender.org
mtllib cub1.mtl
o Cube.001
v -0.755236 -0.001627 0.745852
v -0.800544 -0.001627 0.645053
v -0.787273 -0.001627 0.697561
v -0.645053 -0.001627 0.800544
v -0.745852 -0.001627 0.755236
v -0.697561 -0.001627 0.787273
v -0.745852 0.243137 1.000000
v -0.645053 0.197829 1.000000
v -0.697561 0.211099 1.000000
v -0.800544 0.353319 1.000000
v -0.755236 0.252521 1.000000
v -0.787273 0.300811 1.000000
v -1.000000 0.252521 0.755236
v -1.000000 0.353319 0.800544
v -1.000000 0.300811 0.787273
v -1.000000 0.197829 0.645053
v -1.000000 0.243137 0.745852
v -1.000000 0.211099 0.697561
v -0.755236 1.744224 1.000000
v -0.800544 1.643426 1.000000
v -0.787273 1.695934 1.000000
v -0.645053 1.798916 1.000000
v -0.745852 1.753608 1.000000
v -0.697561 1.785646 1.000000
v -0.745852 1.998373 0.755236
v -0.645053 1.998373 0.800544
v -0.697561 1.998373 0.787273
v -0.800544 1.998373 0.645053
v -0.755236 1.998373 0.745852
v -0.787273 1.998373 0.697561
v -1.000000 1.753608 0.745852
v -1.000000 1.798916 0.645053
v -1.000000 1.785646 0.697561
v -1.000000 1.643426 0.800544
v -1.000000 1.744224 0.755236
v -1.000000 1.695934 0.787273
v -0.745852 -0.001627 -0.755236
v -0.645053 -0.001627 -0.800544
v -0.697561 -0.001627 -0.787273
v -0.800544 -0.001627 -0.645053
v -0.755236 -0.001627 -0.745852
v -0.787273 -0.001627 -0.697561
v -1.000000 0.243137 -0.745852
v -1.000000 0.197829 -0.645053
v -1.000000 0.211099 -0.697561
v -1.000000 0.353319 -0.800544
v -1.000000 0.252521 -0.755236
v -1.000000 0.300811 -0.787273
v -0.755236 0.252521 -1.000000
v -0.800544 0.353319 -1.000000
v -0.787273 0.300811 -1.000000
v -0.645053 0.197829 -1.000000
v -0.745852 0.243137 -1.000000
v -0.697561 0.211099 -1.000000
v -0.755236 1.998373 -0.745852
v -0.800544 1.998373 -0.645053
v -0.787273 1.998373 -0.697561
v -0.645053 1.998373 -0.800544
v -0.745852 1.998373 -0.755236
v -0.697561 1.998373 -0.787273
v -0.745852 1.753608 -1.000000
v -0.645053 1.798916 -1.000000
v -0.697561 1.785646 -1.000000
v -0.800544 1.643426 -1.000000
v -0.755236 1.744224 -1.000000
v -0.787273 1.695934 -1.000000
v -1.000000 1.744224 -0.755236
v -1.000000 1.643426 -0.800544
v -1.000000 1.695934 -0.787273
v -1.000000 1.798916 -0.645053
v -1.000000 1.753608 -0.745852
v -1.000000 1.785646 -0.697561
v 0.745852 -0.001627 0.755236
v 0.645053 -0.001627 0.800544
v 0.697561 -0.001627 0.787273
v 0.800544 -0.001627 0.645053
v 0.755236 -0.001627 0.745852
v 0.787273 -0.001627 0.697561
v 1.000000 0.243137 0.745852
v 1.000000 0.197829 0.645053
v 1.000000 0.211099 0.697561
v 1.000000 0.353319 0.800544
v 1.000000 0.252521 0.755236
v 1.000000 0.300811 0.787273
v 0.755236 0.252521 1.000000
v 0.800544 0.353319 1.000000
v 0.787273 0.300811 1.000000
v 0.645053 0.197829 1.000000
v 0.745852 0.243137 1.000000
v 0.697561 0.211099 1.000000
v 0.755236 1.998373 0.745852
v 0.800544 1.998373 0.645053
v 0.787273 1.998373 0.697561
v 0.645053 1.998373 0.800544
v 0.745852 1.998373 0.755236
v 0.697561 1.998373 0.787273
v 0.745852 1.753608 1.000000
v 0.645053 1.798916 1.000000
v 0.697561 1.785646 1.000000
v 0.800544 1.643426 1.000000
v 0.755236 1.744224 1.000000
v 0.787273 1.695934 1.000000
v 1.000000 1.744224 0.755236
v 1.000000 1.643426 0.800544
v 1.000000 1.695934 0.787273
v 1.000000 1.798916 0.645053
v 1.000000 1.753608 0.745852
v 1.000000 1.785646 0.697561
v 0.755236 -0.001627 -0.745852
v 0.800544 -0.001627 -0.645053
v 0.787273 -0.001627 -0.697561
v 0.645053 -0.001627 -0.800544
v 0.745852 -0.001627 -0.755236
v 0.697561 -0.001627 -0.787273
v 0.745852 0.243137 -1.000000
v 0.645053 0.197829 -1.000000
v 0.697561 0.211099 -1.000000
v 0.800544 0.353319 -1.000000
v 0.755236 0.252521 -1.000000
v 0.787273 0.300811 -1.000000
v 1.000000 0.252521 -0.755236
v 1.000000 0.353319 -0.800544
v 1.000000 0.300811 -0.787273
v 1.000000 0.197829 -0.645053
v 1.000000 0.243137 -0.745852
v 1.000000 0.211099 -0.697561
v 0.745852 1.998373 -0.755236
v 0.645053 1.998373 -0.800544
v 0.697561 1.998373 -0.787273
v 0.800544 1.998373 -0.645053
v 0.755236 1.998373 -0.745852
v 0.787273 1.998373 -0.697561
v 1.000000 1.753608 -0.745852
v 1.000000 1.798916 -0.645053
v 1.000000 1.785646 -0.697561
v 1.000000 1.643426 -0.800544
v 1.000000 1.744224 -0.755236
v 1.000000 1.695934 -0.787273
v 0.755236 1.744224 -1.000000
v 0.800544 1.643426 -1.000000
v 0.787273 1.695934 -1.000000
v 0.645053 1.798916 -1.000000
v 0.745852 1.753608 -1.000000
v 0.697561 1.785646 -1.000000
vn -0.7040 -0.0929 0.7040
vn -0.7040 0.0929 0.7040
vn 0.7040 0.0929 0.7040
vn 0.7040 -0.0929 0.7040
vn -0.7040 0.7040 0.0929
vn -0.7040 0.7040 -0.0929
vn -0.6020 0.5246 0.6020
vn -0.5246 0.6020 0.6020
vn -0.6020 0.6020 0.5246
vn -0.6020 0.6020 -0.5246
vn -0.5246 0.6020 -0.6020
vn -0.6020 0.5246 -0.6020
vn -0.0000 -1.0000 -0.0000
vn 0.0929 0.7040 0.7040
vn -0.0929 0.7040 0.7040
vn -0.7040 0.0929 -0.7040
vn -0.7040 -0.0929 -0.7040
vn -0.0929 0.7040 -0.7040
vn 0.0929 0.7040 -0.7040
vn 0.7040 -0.7040 0.0929
vn 0.7040 -0.7040 -0.0929
vn 0.6020 -0.6020 -0.5246
vn 0.5246 -0.6020 -0.6020
vn 0.6020 -0.5246 -0.6020
vn 0.7040 0.0929 -0.7040
vn 0.7040 -0.0929 -0.7040
vn -0.6020 -0.6020 0.5246
vn -0.5246 -0.6020 0.6020
vn -0.6020 -0.5246 0.6020
vn -1.0000 -0.0000 -0.0000
vn 0.0929 -0.7040 -0.7040
vn -0.0929 -0.7040 -0.7040
vn -0.0000 -0.0000 -1.0000
vn -0.5246 -0.6020 -0.6020
vn -0.6020 -0.6020 -0.5246
vn -0.6020 -0.5246 -0.6020
vn 0.5246 -0.6020 0.6020
vn 0.6020 -0.6020 0.5246
vn 0.6020 -0.5246 0.6020
vn 0.5246 0.6020 -0.6020
vn 0.6020 0.6020 -0.5246
vn 0.6020 0.5246 -0.6020
vn 1.0000 -0.0000 -0.0000
vn 0.6020 0.6020 0.5246
vn 0.5246 0.6020 0.6020
vn 0.6020 0.5246 0.6020
vn 0.7040 0.7040 -0.0929
vn 0.7040 0.7040 0.0929
vn -0.0000 -0.0000 1.0000
vn -0.0000 1.0000 -0.0000
vn -0.0929 -0.7040 0.7040
vn 0.0929 -0.7040 0.7040
vn -0.7040 -0.7040 0.0929
vn -0.6689 -0.6689 0.3243
vn -0.3243 -0.6689 0.6689
vn -0.6689 -0.3243 0.6689
vn -0.6689 0.3243 0.6689
vn -0.3243 0.6689 0.6689
vn -0.6689 0.6689 0.3243
vn -0.3243 -0.6689 -0.6689
vn -0.7040 -0.7040 -0.0929
vn -0.6689 -0.6689 -0.3243
vn -0.6689 -0.3243 -0.6689
vn -0.6689 0.6689 -0.3243
vn -0.3243 0.6689 -0.6689
vn -0.6689 0.3243 -0.6689
vn 0.3243 -0.6689 0.6689
vn 0.6689 -0.6689 0.3243
vn 0.6689 -0.3243 0.6689
vn 0.6689 0.6689 0.3243
vn 0.3243 0.6689 0.6689
vn 0.6689 0.3243 0.6689
vn 0.6689 -0.6689 -0.3243
vn 0.3243 -0.6689 -0.6689
vn 0.6689 -0.3243 -0.6689
vn 0.3243 0.6689 -0.6689
vn 0.6689 0.6689 -0.3243
vn 0.6689 0.3243 -0.6689
vt 0.155596 0.718231
vt 0.149932 0.705632
vt 0.150485 0.712444
vt 0.169368 0.725068
vt 0.156769 0.719404
vt 0.162556 0.724515
vt 0.405596 0.968231
vt 0.156769 0.750000
vt 0.399932 0.955632
vt 0.169368 0.750000
vt 0.401591 0.962195
vt 0.162432 0.750000
vt 0.419368 0.975068
vt 0.419368 0.000000
vt 0.406769 0.969404
vt 0.155596 0.750000
vt 0.412805 0.973409
vt 0.412432 0.000000
vt 0.149932 0.750000
vt 0.406769 0.030596
vt 0.125000 0.719404
vt 0.419368 0.024932
vt 0.412805 0.026591
vt 0.412432 0.024932
vt 0.125000 0.725068
vt 0.399932 0.044368
vt 0.125000 0.705632
vt 0.405596 0.031769
vt 0.125000 0.718231
vt 0.401591 0.037805
vt 0.125000 0.712568
vt 0.593231 0.969404
vt 0.593231 0.000000
vt 0.580632 0.975068
vt 0.580632 0.000000
vt 0.587195 0.973409
vt 0.587568 0.000000
vt 0.600068 0.955632
vt 0.594404 0.968231
vt 0.594404 0.000000
vt 0.598409 0.962195
vt 0.600068 0.962568
vt 0.600068 0.000000
vt 0.843231 0.719404
vt 0.625000 0.030596
vt 0.830632 0.725068
vt 0.625000 0.955632
vt 0.837195 0.723409
vt 0.625000 0.962568
vt 0.625000 0.024932
vt 0.850068 0.705632
vt 0.625000 0.044368
vt 0.844404 0.718231
vt 0.625000 0.031769
vt 0.848409 0.712195
vt 0.625000 0.037432
vt 0.594404 0.031769
vt 0.608040 0.020472
vt 0.600068 0.044368
vt 0.598409 0.037805
vt 0.600068 0.037432
vt 0.625000 0.037432
vt 0.580632 0.024932
vt 0.593231 0.030596
vt 0.604528 0.016960
vt 0.587195 0.026591
vt 0.587568 0.024932
vt 0.587568 0.000000
vt 0.156769 0.530595
vt 0.169368 0.524932
vt 0.162556 0.525485
vt 0.149932 0.544368
vt 0.155596 0.531769
vt 0.150485 0.537556
vt 0.405596 0.218231
vt 0.125000 0.531769
vt 0.399932 0.205632
vt 0.125000 0.544368
vt 0.401591 0.212195
vt 0.125000 0.537432
vt 0.419368 0.225068
vt 0.406769 0.219404
vt 0.125000 0.530596
vt 0.412805 0.223409
vt 0.412432 0.225068
vt 0.125000 0.524932
vt 0.406769 0.280595
vt 0.155596 0.500000
vt 0.419368 0.274932
vt 0.412805 0.276591
vt 0.412432 0.274932
vt 0.149932 0.500000
vt 0.399932 0.294368
vt 0.169368 0.500000
vt 0.405596 0.281769
vt 0.156769 0.500000
vt 0.401591 0.287805
vt 0.162432 0.500000
vt 0.844404 0.531769
vt 0.625000 0.218231
vt 0.850068 0.544368
vt 0.625000 0.205632
vt 0.848409 0.537805
vt 0.625000 0.212568
vt 0.830632 0.524932
vt 0.625000 0.294368
vt 0.843231 0.530595
vt 0.625000 0.219404
vt 0.837195 0.526591
vt 0.625000 0.287432
vt 0.625000 0.225068
vt 0.594404 0.281769
vt 0.594405 0.250000
vt 0.600068 0.294368
vt 0.598409 0.287805
vt 0.600068 0.287432
vt 0.600068 0.250000
vt 0.580632 0.274932
vt 0.593231 0.280596
vt 0.593231 0.250000
vt 0.587195 0.276591
vt 0.587568 0.274932
vt 0.587568 0.250000
vt 0.593231 0.219404
vt 0.604528 0.219404
vt 0.580632 0.225068
vt 0.587195 0.223409
vt 0.587568 0.225068
vt 0.600068 0.205632
vt 0.594404 0.218231
vt 0.608040 0.218231
vt 0.598409 0.212195
vt 0.600068 0.212568
vt 0.625000 0.212568
vt 0.343231 0.719404
vt 0.330632 0.725068
vt 0.337444 0.724515
vt 0.350068 0.705632
vt 0.344404 0.718231
vt 0.348409 0.712195
vt 0.350068 0.712568
vt 0.405596 0.718231
vt 0.375000 0.718231
vt 0.399932 0.705632
vt 0.401591 0.712195
vt 0.399932 0.712568
vt 0.375000 0.712568
vt 0.419368 0.725068
vt 0.406769 0.719404
vt 0.375000 0.719404
vt 0.412805 0.723409
vt 0.412432 0.725068
vt 0.375000 0.725068
vt 0.406769 0.780595
vt 0.344404 0.750000
vt 0.419368 0.774932
vt 0.412805 0.776591
vt 0.412432 0.774932
vt 0.350068 0.750000
vt 0.399932 0.794368
vt 0.330632 0.750000
vt 0.405596 0.781769
vt 0.343231 0.750000
vt 0.401591 0.787805
vt 0.337568 0.750000
vt 0.655596 0.718231
vt 0.625000 0.780595
vt 0.649932 0.705632
vt 0.651591 0.712195
vt 0.649932 0.712568
vt 0.625000 0.774932
vt 0.669368 0.725068
vt 0.625000 0.794368
vt 0.656769 0.719404
vt 0.625000 0.781769
vt 0.662805 0.723409
vt 0.625000 0.787432
vt 0.594404 0.781769
vt 0.594405 0.770472
vt 0.600068 0.794368
vt 0.598409 0.787805
vt 0.600068 0.787432
vt 0.580632 0.774932
vt 0.593231 0.780595
vt 0.593231 0.766960
vt 0.587195 0.776591
vt 0.587568 0.774932
vt 0.587568 0.750000
vt 0.593231 0.719404
vt 0.593231 0.750000
vt 0.580632 0.725068
vt 0.587195 0.723409
vt 0.587568 0.725068
vt 0.587568 0.750000
vt 0.600068 0.705632
vt 0.594404 0.718231
vt 0.594405 0.750000
vt 0.598409 0.712195
vt 0.600068 0.712568
vt 0.600068 0.750000
vt 0.344404 0.531769
vt 0.350068 0.544368
vt 0.348409 0.537805
vt 0.350068 0.537432
vt 0.330632 0.524932
vt 0.343231 0.530595
vt 0.337444 0.525485
vt 0.405596 0.468231
vt 0.343231 0.500000
vt 0.399932 0.455632
vt 0.330632 0.500000
vt 0.401591 0.462195
vt 0.337568 0.500000
vt 0.419368 0.475068
vt 0.406769 0.469404
vt 0.344404 0.500000
vt 0.412805 0.473409
vt 0.412432 0.475068
vt 0.350068 0.500000
vt 0.406769 0.530596
vt 0.375000 0.530595
vt 0.419368 0.524932
vt 0.412805 0.526591
vt 0.412432 0.524932
vt 0.375000 0.524932
vt 0.399932 0.544368
vt 0.405596 0.531769
vt 0.375000 0.531769
vt 0.401591 0.537805
vt 0.399932 0.537432
vt 0.375000 0.537432
vt 0.656769 0.530596
vt 0.625000 0.468231
vt 0.669368 0.524932
vt 0.625000 0.455632
vt 0.662805 0.526591
vt 0.625000 0.462568
vt 0.649932 0.544368
vt 0.655596 0.531769
vt 0.625000 0.469404
vt 0.651591 0.537805
vt 0.649932 0.537432
vt 0.625000 0.475068
vt 0.594404 0.531769
vt 0.594404 0.500000
vt 0.600068 0.544368
vt 0.598409 0.537805
vt 0.600068 0.537432
vt 0.600068 0.500000
vt 0.580632 0.524932
vt 0.593231 0.530595
vt 0.593231 0.500000
vt 0.587195 0.526591
vt 0.587568 0.524932
vt 0.587568 0.500000
vt 0.593231 0.469405
vt 0.604528 0.469405
vt 0.580632 0.475068
vt 0.587195 0.473409
vt 0.587568 0.475068
vt 0.600068 0.455632
vt 0.594404 0.468231
vt 0.608040 0.468231
vt 0.598409 0.462195
vt 0.600068 0.462568
vt 0.625000 0.462568
s 1
f 10/14/1 20/35/2 34/63/2 14/22/1
f 100/183/3 86/156/4 82/148/4 104/191/3
f 28/52/5 56/102/6 70/129/6 32/59/5
f 19/33/7 23/40/8 25/45/8 29/54/9 31/58/9 35/65/7
f 55/100/10 59/108/11 61/113/11 65/120/12 67/125/12 71/131/10
f 40/72/13 42/74/13 41/73/13 37/69/13 39/71/13 38/70/13 112/205/13 114/207/13 113/206/13 109/201/13 111/203/13 110/202/13 76/138/13 78/140/13 77/139/13 73/135/13 75/137/13 74/136/13 4/4/13 6/6/13 5/5/13 1/1/13 3/3/13 2/2/13
f 94/173/14 26/47/15 22/38/15 98/180/14
f 64/118/16 50/89/17 46/81/17 68/126/16
f 58/106/18 128/235/19 142/261/19 62/114/18
f 76/138/20 110/202/21 124/226/21 80/144/20
f 109/201/22 113/206/23 115/209/23 119/216/24 121/221/24 125/228/22
f 136/250/25 122/222/26 118/214/26 140/258/25
f 1/1/27 5/5/28 7/8/28 11/16/29 13/21/29 17/29/27
f 16/26/30 18/30/30 17/28/30 13/20/30 15/23/30 14/22/30 34/63/30 36/66/30 35/64/30 31/57/30 33/60/30 32/59/30 70/129/30 72/132/30 71/130/30 67/124/30 69/127/30 68/126/30 46/81/30 48/84/30 47/82/30 43/75/30 45/79/30 44/77/30
f 112/205/31 38/70/32 52/94/32 116/211/31
f 52/93/33 54/97/33 53/95/33 49/87/33 51/90/33 50/89/33 64/118/33 66/121/33 65/119/33 61/112/33 63/115/33 62/114/33 142/261/33 144/264/33 143/262/33 139/256/33 141/259/33 140/258/33 118/214/33 120/217/33 119/215/33 115/208/33 117/212/33 116/210/33
f 37/69/34 41/73/35 43/76/35 47/83/36 49/88/36 53/96/34
f 73/135/37 77/139/38 79/143/38 83/150/39 85/155/39 89/163/37
f 127/233/40 131/240/41 133/245/41 137/252/42 139/257/42 143/263/40
f 124/226/43 126/229/43 125/227/43 121/220/43 123/223/43 122/222/43 136/250/43 138/253/43 137/251/43 133/244/43 135/247/43 134/246/43 106/195/43 108/198/43 107/196/43 103/189/43 105/192/43 104/191/43 82/148/43 84/151/43 83/149/43 79/142/43 81/145/43 80/144/43
f 91/167/44 95/175/45 97/179/45 101/185/46 103/190/46 107/197/44
f 130/238/47 92/168/48 106/195/48 134/246/47
f 88/160/49 90/164/49 89/162/49 85/154/49 87/157/49 86/156/49 100/183/49 102/186/49 101/184/49 97/178/49 99/181/49 98/180/49 22/38/49 24/41/49 23/39/49 19/32/49 21/36/49 20/34/49 10/13/49 12/17/49 11/15/49 7/7/49 9/11/49 8/9/49
f 130/238/50 132/241/50 131/239/50 127/232/50 129/236/50 128/234/50 58/105/50 60/109/50 59/107/50 55/99/50 57/103/50 56/101/50 28/51/50 30/55/50 29/53/50 25/44/50 27/48/50 26/46/50 94/172/50 96/176/50 95/174/50 91/166/50 93/169/50 92/168/50
f 4/4/51 74/136/52 88/161/52 8/10/51
f 16/27/53 2/2/53 3/3/54 18/31/54
f 18/31/54 3/3/54 1/1/27 17/29/27
f 4/4/51 8/10/51 9/12/55 6/6/55
f 6/6/55 9/12/55 7/8/28 5/5/28
f 10/14/1 14/22/1 15/24/56 12/18/56
f 12/19/56 15/25/56 13/21/29 11/16/29
f 34/63/2 20/35/2 21/37/57 36/67/57
f 36/68/57 21/37/57 19/33/7 35/65/7
f 22/38/15 26/47/15 27/49/58 24/42/58
f 24/43/58 27/50/58 25/45/8 23/40/8
f 28/52/5 32/59/5 33/61/59 30/56/59
f 30/56/59 33/62/59 31/58/9 29/54/9
f 52/94/32 38/70/32 39/71/60 54/98/60
f 54/98/60 39/71/60 37/69/34 53/96/34
f 40/72/61 44/78/61 45/80/62 42/74/62
f 42/74/62 45/80/62 43/76/35 41/73/35
f 46/81/17 50/89/17 51/91/63 48/85/63
f 48/86/63 51/92/63 49/88/36 47/83/36
f 70/129/6 56/102/6 57/104/64 72/133/64
f 72/134/64 57/104/64 55/100/10 71/131/10
f 58/106/18 62/114/18 63/116/65 60/110/65
f 60/111/65 63/117/65 61/113/11 59/108/11
f 64/118/16 68/126/16 69/128/66 66/122/66
f 66/123/66 69/128/66 67/125/12 65/120/12
f 88/161/52 74/136/52 75/137/67 90/165/67
f 90/165/67 75/137/67 73/135/37 89/163/37
f 76/138/20 80/144/20 81/146/68 78/141/68
f 78/141/68 81/147/68 79/143/38 77/139/38
f 82/148/4 86/156/4 87/158/69 84/152/69
f 84/153/69 87/159/69 85/155/39 83/150/39
f 106/195/48 92/168/48 93/170/70 108/199/70
f 108/200/70 93/171/70 91/167/44 107/197/44
f 94/173/14 98/180/14 99/182/71 96/177/71
f 96/177/71 99/182/71 97/179/45 95/175/45
f 100/183/3 104/191/3 105/193/72 102/187/72
f 102/188/72 105/194/72 103/190/46 101/185/46
f 124/226/21 110/202/21 111/204/73 126/230/73
f 126/231/73 111/204/73 109/201/22 125/228/22
f 112/205/31 116/211/31 117/213/74 114/207/74
f 114/207/74 117/213/74 115/209/23 113/206/23
f 118/214/26 122/222/26 123/224/75 120/218/75
f 120/219/75 123/225/75 121/221/24 119/216/24
f 142/261/19 128/235/19 129/237/76 144/265/76
f 144/266/76 129/237/76 127/233/40 143/263/40
f 130/238/47 134/246/47 135/248/77 132/242/77
f 132/243/77 135/249/77 133/245/41 131/240/41
f 136/250/25 140/258/25 141/260/78 138/254/78
f 138/255/78 141/260/78 139/257/42 137/252/42
f 40/72/61 2/2/53 16/27/53 44/78/61
