# Blender 3.3.2
# www.blender.org
mtllib untitled.mtl
o Cube
v 0.698839 1.710262 -1.000000
v 0.698839 2.011423 -0.698839
v 1.000000 1.710262 -0.698839
v 0.698839 1.860645 -0.959766
v 0.849222 1.710262 -0.959766
v 0.842858 1.854280 -0.920684
v 0.849222 1.971189 -0.698839
v 0.698839 1.971189 -0.849222
v 0.842858 1.932107 -0.842858
v 0.959766 1.710262 -0.849222
v 0.959766 1.860645 -0.698839
v 0.920684 1.854280 -0.842858
v 0.698839 0.011423 -0.698839
v 0.698839 0.312583 -1.000000
v 1.000000 0.312583 -0.698839
v 0.698839 0.051657 -0.849222
v 0.849222 0.051657 -0.698839
v 0.842858 0.090739 -0.842858
v 0.849222 0.312583 -0.959766
v 0.698839 0.162200 -0.959766
v 0.842858 0.168565 -0.920684
v 0.959766 0.162200 -0.698839
v 0.959766 0.312583 -0.849222
v 0.920684 0.168565 -0.842858
v 1.000000 1.710262 0.698839
v 0.698839 2.011423 0.698839
v 0.698839 1.710262 1.000000
v 0.959766 1.860645 0.698839
v 0.959766 1.710262 0.849222
v 0.920684 1.854280 0.842858
v 0.698839 1.971189 0.849222
v 0.849222 1.971189 0.698839
v 0.842858 1.932107 0.842858
v 0.849222 1.710262 0.959766
v 0.698839 1.860645 0.959766
v 0.842858 1.854280 0.920684
v 1.000000 0.312583 0.698839
v 0.698839 0.312583 1.000000
v 0.698839 0.011423 0.698839
v 0.959766 0.312583 0.849222
v 0.959766 0.162200 0.698839
v 0.920684 0.168565 0.842858
v 0.698839 0.162200 0.959766
v 0.849222 0.312583 0.959766
v 0.842858 0.168565 0.920684
v 0.849222 0.051657 0.698839
v 0.698839 0.051657 0.849222
v 0.842858 0.090739 0.842858
v -0.698839 1.710262 -1.000000
v -1.000000 1.710262 -0.698839
v -0.698839 2.011423 -0.698839
v -0.849222 1.710262 -0.959766
v -0.698839 1.860645 -0.959766
v -0.842858 1.854280 -0.920684
v -0.959766 1.860645 -0.698839
v -0.959766 1.710262 -0.849222
v -0.920684 1.854280 -0.842858
v -0.698839 1.971189 -0.849222
v -0.849222 1.971189 -0.698839
v -0.842858 1.932107 -0.842858
v -1.000000 0.312583 -0.698839
v -0.698839 0.312583 -1.000000
v -0.698839 0.011423 -0.698839
v -0.959766 0.312583 -0.849222
v -0.959766 0.162200 -0.698839
v -0.920684 0.168565 -0.842858
v -0.698839 0.162200 -0.959766
v -0.849222 0.312583 -0.959766
v -0.842858 0.168565 -0.920684
v -0.849222 0.051657 -0.698839
v -0.698839 0.051657 -0.849222
v -0.842858 0.090739 -0.842858
v -1.000000 1.710262 0.698839
v -0.698839 1.710262 1.000000
v -0.698839 2.011423 0.698839
v -0.959766 1.710262 0.849222
v -0.959766 1.860645 0.698839
v -0.920684 1.854280 0.842858
v -0.698839 1.860645 0.959766
v -0.849222 1.710262 0.959766
v -0.842858 1.854280 0.920684
v -0.849222 1.971189 0.698839
v -0.698839 1.971189 0.849222
v -0.842858 1.932107 0.842858
v -0.698839 0.011423 0.698839
v -0.698839 0.312583 1.000000
v -1.000000 0.312583 0.698839
v -0.698839 0.051657 0.849222
v -0.849222 0.051657 0.698839
v -0.842858 0.090739 0.842858
v -0.849222 0.312583 0.959766
v -0.698839 0.162200 0.959766
v -0.842858 0.168565 0.920684
v -0.959766 0.162200 0.698839
v -0.959766 0.312583 0.849222
v -0.920684 0.168565 0.842858
vn -0.1296 -0.9831 -0.1296
vn 0.1296 -0.9831 -0.1296
vn 0.1296 -0.9831 0.1296
vn -0.1296 -0.9831 0.1296
vn -0.9831 -0.1296 0.1296
vn -0.9831 0.1296 0.1296
vn -0.9831 0.1296 -0.1296
vn -0.9831 -0.1296 -0.1296
vn 0.1296 -0.1296 0.9831
vn 0.1296 0.1296 0.9831
vn -0.1296 0.1296 0.9831
vn -0.1296 -0.1296 0.9831
vn 0.1296 0.9831 -0.1296
vn -0.1296 0.9831 -0.1296
vn -0.1296 0.9831 0.1296
vn 0.1296 0.9831 0.1296
vn 0.9831 -0.1296 -0.1296
vn 0.9831 0.1296 -0.1296
vn 0.9831 0.1296 0.1296
vn 0.9831 -0.1296 0.1296
vn 0.1296 0.1296 -0.9831
vn 0.1216 0.4915 -0.8623
vn 0.4473 0.4473 -0.7744
vn 0.4915 0.1216 -0.8623
vn 0.1216 0.8623 -0.4915
vn 0.4473 0.7744 -0.4473
vn 0.4915 0.8623 -0.1216
vn 0.8623 0.4915 -0.1216
vn 0.7744 0.4473 -0.4473
vn 0.8623 0.1216 -0.4915
vn 0.1216 -0.8623 -0.4915
vn 0.4473 -0.7744 -0.4473
vn 0.4915 -0.8623 -0.1216
vn 0.1216 -0.4915 -0.8623
vn 0.4473 -0.4473 -0.7744
vn 0.1296 -0.1296 -0.9831
vn 0.4915 -0.1216 -0.8623
vn 0.8623 -0.1216 -0.4915
vn 0.7744 -0.4473 -0.4473
vn 0.8623 -0.4915 -0.1216
vn 0.8623 0.4915 0.1216
vn 0.7744 0.4473 0.4473
vn 0.8623 0.1216 0.4915
vn 0.4915 0.8623 0.1216
vn 0.4473 0.7744 0.4473
vn 0.1216 0.8623 0.4915
vn 0.1216 0.4915 0.8623
vn 0.4473 0.4473 0.7744
vn 0.4915 0.1216 0.8623
vn 0.8623 -0.1216 0.4915
vn 0.7744 -0.4473 0.4473
vn 0.8623 -0.4915 0.1216
vn 0.4915 -0.1216 0.8623
vn 0.4473 -0.4473 0.7744
vn 0.1216 -0.4915 0.8623
vn 0.1216 -0.8623 0.4915
vn 0.4473 -0.7744 0.4473
vn 0.4915 -0.8623 0.1216
vn -0.1296 0.1296 -0.9831
vn -0.4915 0.1216 -0.8623
vn -0.4473 0.4473 -0.7744
vn -0.1216 0.4915 -0.8623
vn -0.8623 0.1216 -0.4915
vn -0.7744 0.4473 -0.4473
vn -0.8623 0.4915 -0.1216
vn -0.4915 0.8623 -0.1216
vn -0.4473 0.7744 -0.4473
vn -0.1216 0.8623 -0.4915
vn -0.8623 -0.1216 -0.4915
vn -0.7744 -0.4473 -0.4473
vn -0.8623 -0.4915 -0.1216
vn -0.4915 -0.1216 -0.8623
vn -0.4473 -0.4473 -0.7744
vn -0.1296 -0.1296 -0.9831
vn -0.1216 -0.4915 -0.8623
vn -0.1216 -0.8623 -0.4915
vn -0.4473 -0.7744 -0.4473
vn -0.4915 -0.8623 -0.1216
vn -0.8623 0.1216 0.4915
vn -0.7744 0.4473 0.4473
vn -0.8623 0.4915 0.1216
vn -0.4915 0.1216 0.8623
vn -0.4473 0.4473 0.7744
vn -0.1216 0.4915 0.8623
vn -0.1216 0.8623 0.4915
vn -0.4473 0.7744 0.4473
vn -0.4915 0.8623 0.1216
vn -0.1216 -0.8623 0.4915
vn -0.4473 -0.7744 0.4473
vn -0.4915 -0.8623 0.1216
vn -0.1216 -0.4915 0.8623
vn -0.4473 -0.4473 0.7744
vn -0.4915 -0.1216 0.8623
vn -0.8623 -0.1216 0.4915
vn -0.7744 -0.4473 0.4473
vn -0.8623 -0.4915 0.1216
vt 0.587355 0.462355
vt 0.662645 0.537645
vt 0.587355 0.537645
vt 0.606153 0.462355
vt 0.587355 0.481153
vt 0.605357 0.480357
vt 0.643847 0.537645
vt 0.662645 0.500000
vt 0.625000 0.462355
vt 0.644643 0.500000
vt 0.625000 0.480357
vt 0.587355 0.518847
vt 0.606153 0.537645
vt 0.605357 0.519643
vt 0.605357 0.490085
vt 0.337355 0.537645
vt 0.412645 0.462355
vt 0.412645 0.537645
vt 0.337355 0.518847
vt 0.356153 0.537645
vt 0.355357 0.519643
vt 0.412645 0.481153
vt 0.337355 0.500000
vt 0.375000 0.462355
vt 0.375000 0.480357
vt 0.355357 0.500000
vt 0.393847 0.537645
vt 0.412645 0.518847
vt 0.394643 0.519643
vt 0.365086 0.519643
vt 0.587355 0.712355
vt 0.662645 0.712355
vt 0.587355 0.787645
vt 0.606153 0.712355
vt 0.587355 0.731153
vt 0.605357 0.730357
vt 0.605357 0.759915
vt 0.662645 0.750000
vt 0.625000 0.787645
vt 0.643847 0.712355
vt 0.644643 0.750000
vt 0.625000 0.769643
vt 0.587355 0.768847
vt 0.606153 0.787645
vt 0.605357 0.769643
vt 0.412645 0.712355
vt 0.412645 0.787645
vt 0.337355 0.712355
vt 0.412645 0.731153
vt 0.393847 0.712355
vt 0.394643 0.730357
vt 0.365086 0.730357
vt 0.337355 0.750000
vt 0.375000 0.787645
vt 0.412645 0.768847
vt 0.375000 0.769643
vt 0.355357 0.750000
vt 0.356153 0.712355
vt 0.337355 0.731153
vt 0.355357 0.730357
vt 0.587355 0.287645
vt 0.587355 0.212355
vt 0.837355 0.537645
vt 0.587355 0.268847
vt 0.606153 0.287645
vt 0.605357 0.269643
vt 0.605357 0.240085
vt 0.606153 0.212355
vt 0.587355 0.231153
vt 0.605357 0.230357
vt 0.837355 0.500000
vt 0.625000 0.287645
vt 0.875000 0.537645
vt 0.625000 0.212355
vt 0.875000 0.519643
vt 0.625000 0.250000
vt 0.625000 0.230357
vt 0.412645 0.212355
vt 0.412645 0.287645
vt 0.162645 0.537645
vt 0.412645 0.231153
vt 0.125000 0.537645
vt 0.375000 0.212355
vt 0.375000 0.230357
vt 0.125000 0.519643
vt 0.162645 0.500000
vt 0.375000 0.287645
vt 0.412645 0.268847
vt 0.375000 0.269643
vt 0.144643 0.500000
vt 0.143847 0.537645
vt 0.162645 0.518847
vt 0.144643 0.519643
vt 0.587355 0.037645
vt 0.587355 0.962355
vt 0.837355 0.712355
vt 0.587355 0.018847
vt 0.606153 0.037645
vt 0.605357 0.019643
vt 0.606153 0.962355
vt 0.587355 1.000000
vt 0.587355 0.000000
vt 0.605357 1.000000
vt 0.605357 0.000000
vt 0.875000 0.712355
vt 0.625000 0.037645
vt 0.837355 0.750000
vt 0.625000 0.962355
vt 0.625000 1.000000
vt 0.875000 0.730357
vt 0.625000 0.019643
vt 0.162645 0.712355
vt 0.412645 0.962355
vt 0.412645 0.037645
vt 0.162645 0.731153
vt 0.143847 0.712355
vt 0.144643 0.730357
vt 0.412645 1.000000
vt 0.412645 0.000000
vt 0.162645 0.750000
vt 0.375000 0.962355
vt 0.375000 0.980357
vt 0.375000 0.000000
vt 0.144643 0.750000
vt 0.125000 0.712355
vt 0.375000 0.037645
vt 0.412645 0.018847
vt 0.375000 0.019643
vt 0.125000 0.730357
s 1
usemtl Material
f 63/80/1 13/16/2 39/48/3 85/112/4
f 87/114/5 73/94/6 50/62/7 61/78/8
f 38/47/9 27/33/10 74/95/11 86/113/12
f 2/2/13 51/63/14 75/96/15 26/32/16
f 15/18/17 3/3/18 25/31/19 37/46/20
f 1/1/21 4/4/22 6/6/23 5/5/24
f 4/4/22 8/9/25 9/11/26 6/6/23
f 2/2/13 7/7/27 9/10/26 8/8/25
f 7/7/27 11/13/28 12/14/29 9/10/26
f 3/3/18 10/12/30 12/14/29 11/13/28
f 10/12/30 5/5/24 6/6/23 12/14/29
f 6/6/23 9/11/26 12/15/29
f 13/16/2 16/19/31 18/21/32 17/20/33
f 16/19/31 20/23/34 21/26/35 18/21/32
f 14/17/36 19/22/37 21/25/35 20/24/34
f 19/22/37 23/28/38 24/29/39 21/25/35
f 15/18/17 22/27/40 24/29/39 23/28/38
f 22/27/40 17/20/33 18/21/32 24/29/39
f 18/21/32 21/26/35 24/30/39
f 25/31/19 28/34/41 30/36/42 29/35/43
f 28/34/41 32/40/44 33/41/45 30/36/42
f 26/32/16 31/38/46 33/41/45 32/40/44
f 31/39/46 35/44/47 36/45/48 33/42/45
f 27/33/10 34/43/49 36/45/48 35/44/47
f 34/43/49 29/35/43 30/36/42 36/45/48
f 30/37/42 33/42/45 36/45/48
f 37/46/20 40/49/50 42/51/51 41/50/52
f 40/49/50 44/55/53 45/56/54 42/51/51
f 38/47/9 43/54/55 45/56/54 44/55/53
f 43/53/55 47/59/56 48/60/57 45/57/54
f 39/48/3 46/58/58 48/60/57 47/59/56
f 46/58/58 41/50/52 42/51/51 48/60/57
f 42/52/51 45/57/54 48/60/57
f 49/61/59 52/64/60 54/66/61 53/65/62
f 52/64/60 56/69/63 57/70/64 54/66/61
f 50/62/7 55/68/65 57/70/64 56/69/63
f 55/68/65 59/74/66 60/77/67 57/70/64
f 51/63/14 58/71/68 60/75/67 59/73/66
f 58/72/68 53/65/62 54/66/61 60/76/67
f 54/67/61 57/70/64 60/77/67
f 61/78/8 64/81/69 66/84/70 65/83/71
f 64/81/69 68/88/72 69/89/73 66/84/70
f 62/79/74 67/87/75 69/89/73 68/88/72
f 67/86/75 71/92/76 72/93/77 69/90/73
f 63/80/1 70/91/78 72/93/77 71/92/76
f 70/91/78 65/82/71 66/85/70 72/93/77
f 66/85/70 69/90/73 72/93/77
f 73/94/6 76/97/79 78/99/80 77/98/81
f 76/97/79 80/102/82 81/104/83 78/99/80
f 74/95/11 79/100/84 81/103/83 80/101/82
f 79/100/84 83/108/85 84/109/86 81/103/83
f 75/96/15 82/105/87 84/110/86 83/107/85
f 82/106/87 77/98/81 78/99/80 84/111/86
f 78/99/80 81/104/83 84/111/86
f 85/112/4 88/115/88 90/117/89 89/116/90
f 88/115/88 92/120/91 93/124/92 90/117/89
f 86/113/12 91/118/93 93/122/92 92/121/91
f 91/119/93 95/127/94 96/128/95 93/123/92
f 87/114/5 94/126/96 96/128/95 95/127/94
f 94/125/96 89/116/90 90/117/89 96/129/95
f 90/117/89 93/124/92 96/129/95
f 63/80/1 85/112/4 89/116/90 70/91/78
f 70/91/78 89/116/90 94/125/96 65/82/71
f 65/83/71 94/126/96 87/114/5 61/78/8
f 13/16/2 63/80/1 71/92/76 16/19/31
f 16/19/31 71/92/76 67/86/75 20/23/34
f 20/24/34 67/87/75 62/79/74 14/17/36
f 3/3/18 15/18/17 23/28/38 10/12/30
f 10/12/30 23/28/38 19/22/37 5/5/24
f 5/5/24 19/22/37 14/17/36 1/1/21
f 86/113/12 74/95/11 80/101/82 91/118/93
f 91/119/93 80/102/82 76/97/79 95/127/94
f 95/127/94 76/97/79 73/94/6 87/114/5
f 27/33/10 38/47/9 44/55/53 34/43/49
f 34/43/49 44/55/53 40/49/50 29/35/43
f 29/35/43 40/49/50 37/46/20 25/31/19
f 49/61/59 62/79/74 68/88/72 52/64/60
f 52/64/60 68/88/72 64/81/69 56/69/63
f 56/69/63 64/81/69 61/78/8 50/62/7
f 26/32/16 75/96/15 83/107/85 31/38/46
f 31/39/46 83/108/85 79/100/84 35/44/47
f 35/44/47 79/100/84 74/95/11 27/33/10
f 2/2/13 26/32/16 32/40/44 7/7/27
f 7/7/27 32/40/44 28/34/41 11/13/28
f 11/13/28 28/34/41 25/31/19 3/3/18
f 85/112/4 39/48/3 47/59/56 88/115/88
f 88/115/88 47/59/56 43/53/55 92/120/91
f 92/121/91 43/54/55 38/47/9 86/113/12
f 75/96/15 51/63/14 59/73/66 82/105/87
f 82/106/87 59/74/66 55/68/65 77/98/81
f 77/98/81 55/68/65 50/62/7 73/94/6
f 51/63/14 2/2/13 8/8/25 58/71/68
f 58/72/68 8/9/25 4/4/22 53/65/62
f 53/65/62 4/4/22 1/1/21 49/61/59
f 39/48/3 13/16/2 17/20/33 46/58/58
f 46/58/58 17/20/33 22/27/40 41/50/52
f 41/50/52 22/27/40 15/18/17 37/46/20
f 62/79/74 49/61/59 1/1/21 14/17/36
