# Blender 3.3.2
# www.blender.org
mtllib стакан 00_1.mtl
o Cube.012
v 6.234609 5.140782 -1.211357
v 7.359873 13.085147 -1.211357
v 7.359873 9.112965 -1.211357
v 7.359873 5.140782 -1.211357
v 7.389816 13.130216 -0.095370
v 6.897483 9.175500 0.012666
v 6.067222 10.289182 0.030540
v 6.104961 9.130249 -0.159616
v 7.266549 7.831429 -0.014020
v 7.359873 9.112965 -0.221281
v 7.603806 10.912786 0.168905
v 6.093464 12.951213 -0.092349
v 6.079581 11.027718 0.012767
v 6.126853 9.118608 -0.741190
v 6.329628 9.141114 -1.117499
v 6.209888 7.802088 -1.332902
v 6.329191 13.085147 -1.211357
v 6.055377 13.082553 -0.869570
v 7.442954 5.092194 -0.791283
v 7.352960 7.048381 -0.061430
v 6.721443 5.092194 0.092435
v 6.476155 5.140782 0.052276
v 6.234609 5.140782 -0.318080
v 6.121149 8.591946 -0.214129
v 6.500407 8.446758 0.101818
vn 0.9999 0.0137 0.0069
vn -0.9999 -0.0091 -0.0099
vn 0.0406 0.0108 -0.9991
vn -0.0457 -0.0118 -0.9989
vn 0.4382 -0.1010 0.8932
vn 0.9943 -0.0011 -0.1066
vn -0.0634 0.0425 0.9971
vn -0.8738 0.1524 -0.4617
vn -0.8326 -0.0231 -0.5534
vn 0.1263 0.0027 0.9920
vn 0.7595 -0.1964 0.6201
vn -0.2842 -0.0250 0.9584
vn -0.7440 -0.0250 0.6677
vn -0.9990 -0.0252 -0.0374
vt 0.344178 0.830653
vt 0.009155 0.763914
vt 0.001076 0.968406
vt 0.180399 0.773383
vt 0.171316 0.968406
vt 0.339972 0.965341
vt 0.347897 0.780489
vt 0.004792 0.909386
vt 0.170095 0.898431
vt 0.118385 0.871098
vt 0.178188 0.852292
vt 0.227823 0.917934
vt 0.170947 0.922829
vt 0.094040 0.915548
vt 0.006304 0.830905
vt 0.002930 0.892599
vt 0.091684 0.865836
vt 0.177884 0.838852
vt 0.178427 0.819824
vt 0.234982 0.820313
vt 0.006516 0.807402
vt 0.006569 0.826069
vt 0.339004 0.948688
vt 0.258444 0.922104
vt 0.339559 0.891731
vt 0.341035 0.889355
vt 0.341793 0.870489
vt 0.200553 0.857285
vt 0.204787 0.885365
s 0
usemtl Material.010
f 20/24/1 19/23/1 4/6/1 3/5/1 10/13/1 9/12/1
f 14/18/2 8/11/2 7/10/2 13/17/2 12/15/2 18/22/2
f 4/7/3 1/1/3 16/20/3 15/19/3 3/4/3
f 3/4/4 15/19/4 17/21/4 2/2/4
f 6/9/5 9/12/5 10/13/5 11/14/5
f 11/14/6 10/13/6 3/5/6 2/3/6 5/8/6
f 7/10/7 6/9/7 11/14/7 5/8/7 12/16/7 13/17/7
f 14/18/8 15/19/8 16/20/8
f 14/18/9 18/22/9 17/21/9 15/19/9
f 22/26/10 21/25/10 20/24/10 9/12/10 6/9/10 25/29/10
f 19/23/11 20/24/11 21/25/11
f 24/28/12 25/29/12 6/9/12 7/10/12 8/11/12
f 22/26/13 25/29/13 24/28/13 23/27/13
f 1/1/14 23/27/14 24/28/14 8/11/14 14/18/14 16/20/14
o Cube.009
v -6.566000 5.201427 -0.980583
v -6.566000 9.173609 -0.980583
v -5.430727 5.201427 -0.980583
v -5.430727 5.201427 0.283049
v -5.430727 9.173609 -0.719086
v -5.430727 6.137022 -0.980583
v -6.064970 8.872871 -0.998637
v -5.304618 6.674420 0.334792
v -5.378918 9.173609 -0.039834
v -6.566000 9.173609 0.183332
v -6.645068 6.851304 0.269428
v -6.341254 8.509071 0.262427
v -5.626116 7.628891 0.302100
v -5.895219 9.110678 0.238899
v -6.566000 5.201427 -0.293042
v -5.631393 5.201427 0.283049
v -6.242465 5.837435 0.277799
v -6.243417 5.201427 0.029541
vn 0.4083 0.1345 0.9029
vn 0.9973 -0.0110 -0.0727
vn 0.3702 0.0797 -0.9255
vn -0.0081 -0.0030 -1.0000
vn -0.2148 0.0435 0.9757
vn -0.0038 0.0419 0.9991
vn -0.9994 0.0043 -0.0357
vn -0.6818 -0.2651 0.6818
vn -0.3601 -0.3388 0.8693
vn -0.0413 -0.0029 0.9991
vt 0.101235 0.214308
vt 0.148945 0.745037
vt 0.103444 0.375735
vt 0.148945 0.581476
vt 0.006270 0.754579
vt 0.055099 0.214935
vt 0.061268 0.747441
vt 0.012756 0.585570
vt 0.055099 0.376829
vt 0.000986 0.713858
vt 0.055615 0.252957
vt 0.082902 0.363792
vt 0.053147 0.687754
vt 0.042083 0.586421
vt 0.098127 0.583580
vt 0.101569 0.676318
vt 0.088564 0.611475
vt 0.061757 0.649787
vt 0.067243 0.587589
vt 0.119197 0.743509
vt 0.069845 0.746326
vt 0.091786 0.716470
vt 0.099169 0.743989
s 0
usemtl Material.005
f 39/48/15 38/47/15 33/42/15 34/43/15
f 29/36/16 28/34/16 31/39/16 30/37/16 34/43/16 33/42/16
f 30/38/17 31/40/17 32/41/17
f 28/35/18 26/30/18 27/32/18 32/41/18 31/40/18
f 35/44/19 36/45/19 37/46/19
f 37/46/20 38/47/20 39/48/20
f 26/31/21 40/49/21 36/45/21 35/44/21 27/33/21
f 43/52/22 42/51/22 36/45/22 40/49/22
f 41/50/23 42/51/23 43/52/23
f 36/45/24 42/51/24 41/50/24 29/36/24 33/42/24 38/47/24 37/46/24
o Cube.008
v -6.576934 17.087650 -0.980872
v -6.576934 13.145791 -0.980872
v -5.441660 13.145791 -0.980872
v -5.455586 16.695734 0.051158
v -5.739286 17.072891 0.328342
v -5.671657 17.231434 -0.989069
v -5.441660 16.622519 -0.980872
v -6.403563 17.105659 -0.373659
v -5.830706 17.077969 0.325257
v -6.455423 13.145791 0.282760
v -6.576934 13.145791 0.161249
v -6.556742 16.286674 -0.078795
v -6.231573 15.079695 0.283100
v -5.400743 13.216258 0.019868
v -5.406377 15.243480 0.281549
v -5.932498 13.145792 0.282760
vn 0.1029 0.0079 0.9947
vn -0.0004 -0.0010 -1.0000
vn -0.9994 0.0219 0.0286
vn -0.6281 0.1912 0.7543
vn 0.8911 0.4513 0.0473
vn -0.0983 0.9923 0.0748
vn -0.6439 0.0670 0.7622
vn 0.4523 -0.1129 0.8847
vn 0.9997 0.0089 -0.0239
vt 0.000977 0.220650
vt 0.742198 0.072108
vt 0.000977 0.380859
vt 0.903049 0.001503
vt 0.047118 0.380859
vt 0.938210 0.163737
vt 0.793433 0.121808
vt 0.795024 0.109889
vt 0.037771 0.214804
vt 0.739952 0.136516
vt 0.047118 0.239555
vt 0.772011 0.163737
vt 0.770846 0.093521
vt 0.794827 0.107339
vt 0.923728 0.060746
vt 0.921883 0.053355
vt 0.798843 0.080214
vt 0.845342 0.086426
vt 0.929069 0.114298
vt 0.842104 0.117984
vt 0.928586 0.085278
s 0
usemtl Material.004
f 53/67/25 59/73/25 58/72/25 47/59/25 48/60/25 52/66/25 56/70/25
f 46/57/26 45/55/26 44/53/26 49/61/26 50/63/26
f 45/56/27 54/68/27 55/69/27 51/65/27 44/54/27
f 51/65/28 55/69/28 56/70/28 52/66/28
f 49/62/29 48/60/29 47/59/29 50/64/29
f 49/62/30 44/54/30 51/65/30 52/66/30 48/60/30
f 53/67/31 56/70/31 55/69/31 54/68/31
f 57/71/32 58/72/32 59/73/32
f 58/72/33 57/71/33 46/58/33 50/64/33 47/59/33
o Cube.004
v -7.020722 1.212524 -1.374781
v -7.020722 6.036757 -1.374781
v -7.070792 3.271890 0.618089
v -6.263711 5.774382 0.530215
v -6.855624 5.890003 0.076910
v -5.318968 5.934087 -0.633143
v -5.041305 5.815851 0.589681
v -6.126896 1.153751 0.526820
v -4.974879 4.525536 0.570680
v -5.007556 3.813294 0.172307
v -6.421995 1.141538 0.526820
v -7.193693 2.184457 0.594031
v -7.266228 1.016434 0.080322
v -5.415619 1.710403 -1.363486
v -5.558404 1.173426 -1.374781
v -5.273912 1.199955 0.098120
v -4.993678 2.585253 0.063622
v -5.753791 6.036757 -1.374781
v -5.392109 5.972419 -0.952658
v -5.376809 2.580081 -1.436528
vn 0.9761 0.0600 -0.2088
vn 0.9684 0.0246 -0.2482
vn 0.6165 -0.1560 0.7717
vn -0.5680 0.2111 0.7955
vn 0.0151 -0.0063 0.9999
vn -0.9985 0.0509 -0.0207
vn -0.3973 -0.3487 0.8489
vn 0.0081 0.9925 0.1217
vn 0.9623 -0.2138 -0.1680
vn 0.0491 -0.9982 -0.0337
vn 0.7631 0.0946 -0.6394
vn -0.0174 -0.0016 -0.9998
vt 0.503762 0.583661
vt 0.614741 0.508338
vt 0.555400 0.794980
vt 0.689382 0.252792
vt 0.586583 0.678169
vt 0.607323 0.738699
vt 0.593220 0.747069
vt 0.630935 0.759657
vt 0.620562 0.739294
vt 0.638743 0.607119
vt 0.630685 0.719400
vt 0.652041 0.706768
vt 0.626771 0.603570
vt 0.590114 0.637057
vt 0.585941 0.581233
vt 0.747193 0.655392
vt 0.711650 0.508195
vt 0.756499 0.626002
vt 0.691550 0.533178
vt 0.678461 0.610291
vt 0.670297 0.670883
vt 0.631279 0.804340
vt 0.756499 0.272373
vt 0.636401 0.768391
vt 0.734088 0.699883
vt 0.731601 0.463849
s 0
usemtl Material.007
f 68/84/34 69/85/34 65/81/34 66/82/34
f 76/94/35 73/89/35 79/98/35 78/97/35 65/81/35 69/85/35
f 68/84/36 67/83/36 75/93/36 76/94/36 69/85/36
f 62/78/37 63/79/37 64/80/37
f 71/87/38 70/86/38 67/83/38 68/84/38 66/82/38 63/79/38 62/78/38
f 60/74/39 72/88/39 71/87/39 62/78/39 64/80/39 61/76/39
f 70/86/40 71/87/40 72/88/40
f 66/82/41 65/81/41 78/97/41 77/95/41 61/76/41 64/80/41 63/79/41
f 73/89/42 76/94/42 75/93/42 74/91/42
f 70/86/43 72/88/43 60/75/43 74/92/43 75/93/43 67/83/43
f 77/95/44 78/97/44 79/98/44
f 73/90/45 74/92/45 60/75/45 61/77/45 77/96/45 79/99/45
o Cube.003
v -6.933245 8.569313 -1.192793
v -6.933245 13.750087 -1.192793
v -5.082375 13.750087 -1.192793
v -5.131016 13.835876 0.569543
v -5.154041 11.419295 0.762062
v -6.991624 13.426183 0.730271
v -5.398842 13.678507 0.821903
v -5.667638 12.337313 0.848598
v -6.988732 8.558864 0.491325
v -6.645996 12.411762 0.834019
v -6.750310 10.534178 0.878518
v -6.911699 9.919775 0.706247
v -5.082375 9.205470 -1.192793
v -5.199295 8.604390 -1.192793
v -5.154814 10.407450 0.835404
v -6.597759 8.143903 0.706215
v -6.235301 9.235547 0.869138
v -5.156210 9.551024 0.856174
v -5.199744 8.572814 0.728581
vn 0.4148 0.0209 0.9097
vn -0.1111 0.9904 0.0823
vn 0.9973 -0.0664 0.0302
vn 0.0327 0.0136 0.9994
vn -0.3919 -0.0921 0.9154
vn -0.0000 -0.0000 -1.0000
vn -0.9999 -0.0006 -0.0103
vn -0.4748 0.0055 0.8801
vn -0.0449 0.0538 0.9975
vn 0.9994 -0.0018 0.0339
vn 0.0403 -0.1466 0.9884
vn 0.0291 -0.9921 -0.1224
vt 0.076202 0.001008
vt 0.659808 0.807478
vt 0.076202 0.211570
vt 0.349074 0.807478
vt 0.000977 0.211570
vt 0.349445 0.992716
vt 0.441883 0.919169
vt 0.512147 0.935006
vt 0.459355 0.876902
vt 0.449607 0.909620
vt 0.483063 0.910286
vt 0.592231 0.870187
vt 0.482696 0.883476
vt 0.535337 0.875538
vt 0.553011 0.866179
vt 0.000977 0.026863
vt 0.651383 0.999023
vt 0.005729 0.002433
vt 0.682993 0.956601
vt 0.545148 0.923779
vt 0.598449 0.882155
vt 0.573982 0.887397
vt 0.571175 0.913941
vt 0.592550 0.906077
s 0
usemtl Material.003
f 83/106/46 86/109/46 87/110/46 84/107/46
f 86/109/47 83/106/47 82/105/47 81/103/47 85/108/47
f 92/116/48 94/119/48 97/122/48 98/123/48 93/118/48
f 90/113/49 96/121/49 97/122/49 94/119/49 84/107/49 87/110/49 89/112/49
f 90/113/50 91/114/50 88/111/50 95/120/50 96/121/50
f 92/115/51 93/117/51 80/100/51 81/102/51 82/104/51
f 80/101/52 88/111/52 91/114/52 85/108/52 81/103/52
f 85/108/53 91/114/53 90/113/53 89/112/53
f 86/109/54 85/108/54 89/112/54 87/110/54
f 94/119/55 92/116/55 82/105/55 83/106/55 84/107/55
f 97/122/56 96/121/56 95/120/56 98/123/56
f 98/123/57 95/120/57 88/111/57 80/101/57 93/118/57
o Cube
v 7.723758 -0.294855 -1.317758
v 7.723758 1.208560 -1.317758
v 7.723758 -0.294855 1.295691
v -7.406335 -0.294855 -1.317763
v -7.406335 1.208560 -1.317763
v -7.406336 -0.294855 1.295686
v 7.723758 1.208560 0.639304
v 7.723758 0.687210 1.295691
v -7.406336 0.687210 1.295686
v -7.406336 1.208560 0.639300
vn -0.0000 -0.0000 1.0000
vn -1.0000 -0.0000 -0.0000
vn -0.0000 -0.0000 -1.0000
vn -0.0000 -1.0000 -0.0000
vn 1.0000 -0.0000 -0.0000
vn -0.0000 0.7831 0.6220
vn -0.0000 1.0000 -0.0000
vt 0.193436 0.770813
vt 0.000977 0.578354
vt 0.193436 0.000977
vt 0.385895 0.770813
vt 0.385895 0.000977
vt 0.578354 0.578354
vt 0.000977 0.385895
vt 0.193436 0.193436
vt 0.193436 0.578354
vt 0.385895 0.578354
vt 0.193436 0.385895
vt 0.385895 0.145098
vt 0.385895 0.193436
vt 0.578354 0.434232
vt 0.319154 0.193436
vt 0.319154 0.385895
vt 0.385895 0.385895
vt 0.385895 0.434232
s 0
usemtl Material.008
f 101/131/58 106/138/58 107/139/58 104/134/58
f 104/134/59 107/139/59 108/141/59 103/133/59 102/132/59
f 102/132/60 103/133/60 100/127/60 99/124/60
f 101/130/61 104/134/61 102/132/61 99/125/61
f 99/126/62 100/128/62 105/135/62 106/138/62 101/131/62
f 105/136/63 108/140/63 107/139/63 106/138/63
f 108/141/64 105/137/64 100/129/64 103/133/64
o Cube.001
v 5.919043 1.212524 -1.514872
v 6.183381 6.036757 -1.514872
v 5.868973 3.271890 0.477998
v 6.676054 5.774382 0.390124
v 6.084141 5.890003 -0.063181
v 7.620797 5.934087 -0.773234
v 7.561529 5.815851 0.541382
v 6.812869 1.153751 0.386729
v 7.816545 4.525537 0.444438
v 7.932209 3.813294 0.032216
v 6.517770 1.141539 0.386729
v 5.746072 2.184457 0.453940
v 5.673537 1.016435 -0.059769
v 7.524146 1.710403 -1.503577
v 7.381361 1.173426 -1.514872
v 7.665853 1.199955 -0.041971
v 7.946087 2.585253 -0.076469
v 7.185974 6.036757 -1.514872
v 7.547656 5.972419 -1.092749
v 7.562956 2.580081 -1.576619
vn 0.9843 0.1719 0.0406
vn 0.9684 0.0246 -0.2482
vn 0.5806 -0.1368 0.8026
vn -0.5680 0.2111 0.7955
vn 0.0014 -0.0151 0.9999
vn -0.9931 0.0727 -0.0918
vn -0.3973 -0.3487 0.8489
vn 0.0064 0.9927 0.1202
vn 0.9623 -0.2138 -0.1680
vn 0.0491 -0.9982 -0.0337
vn 0.7631 0.0946 -0.6394
vn -0.0190 -0.0017 -0.9998
vt 0.704714 0.735343
vt 0.815693 0.660020
vt 0.756353 0.946662
vt 0.890335 0.404474
vt 0.787536 0.829851
vt 0.808276 0.890381
vt 0.794173 0.898751
vt 0.831887 0.911340
vt 0.821515 0.890976
vt 0.839696 0.758801
vt 0.831638 0.871082
vt 0.852994 0.858450
vt 0.827724 0.755253
vt 0.791067 0.788739
vt 0.786894 0.732915
vt 0.948146 0.807075
vt 0.912602 0.659877
vt 0.957452 0.777685
vt 0.892503 0.684861
vt 0.879414 0.761974
vt 0.871250 0.822565
vt 0.832232 0.956023
vt 0.957452 0.424055
vt 0.837354 0.920073
vt 0.935041 0.851565
vt 0.932553 0.615532
s 0
usemtl Material.011
f 117/152/65 118/153/65 114/149/65 115/150/65
f 125/162/66 122/157/66 128/166/66 127/165/66 114/149/66 118/153/66
f 117/152/67 116/151/67 124/161/67 125/162/67 118/153/67
f 111/146/68 112/147/68 113/148/68
f 120/155/69 119/154/69 116/151/69 117/152/69 115/150/69 112/147/69 111/146/69
f 109/142/70 121/156/70 120/155/70 111/146/70 113/148/70 110/144/70
f 119/154/71 120/155/71 121/156/71
f 115/150/72 114/149/72 127/165/72 126/163/72 110/144/72 113/148/72 112/147/72
f 122/157/73 125/162/73 124/161/73 123/159/73
f 119/154/74 121/156/74 109/143/74 123/160/74 124/161/74 116/151/74
f 126/163/75 127/165/75 128/166/75
f 122/158/76 123/160/76 109/143/76 110/145/76 126/164/76 128/167/76
o Cube.002
v 5.919043 12.420045 -1.514872
v 6.195396 17.214905 -1.275884
v 5.868973 14.479411 0.477998
v 6.757121 17.020216 0.137679
v 6.317904 17.106009 -0.198687
v 7.458149 17.138721 -0.725567
v 7.664183 17.050987 0.181805
v 6.812869 12.361273 0.386729
v 7.964886 15.733057 0.430589
v 7.932209 15.020816 0.032216
v 6.517770 12.349060 0.386729
v 5.746072 13.391979 0.453940
v 5.797837 12.387188 -0.063639
v 7.524146 12.917925 -1.503577
v 7.381361 12.380947 -1.514872
v 7.665853 12.407476 -0.041971
v 7.946087 13.792774 -0.076469
v 7.135497 17.214905 -1.275884
v 7.403875 17.167166 -0.962656
v 7.562956 13.787603 -1.576619
vn 0.9588 0.1446 -0.2444
vn 0.9605 0.0613 -0.2716
vn 0.6165 -0.1560 0.7717
vn -0.5439 0.2953 0.7855
vn -0.0085 0.0540 0.9985
vn -0.9945 0.0880 -0.0561
vn -0.4977 -0.4173 0.7603
vn 0.0081 0.9925 0.1217
vn 0.9623 -0.2138 -0.1680
vn -0.0021 -0.9999 -0.0168
vn 0.7620 0.1503 -0.6299
vn -0.0446 0.0458 -0.9980
vt 0.608184 0.030192
vt 0.683507 0.141171
vt 0.396864 0.081831
vt 0.939053 0.215812
vt 0.513676 0.113014
vt 0.453146 0.133753
vt 0.444776 0.119650
vt 0.432187 0.157365
vt 0.452551 0.146992
vt 0.584725 0.165174
vt 0.472445 0.157115
vt 0.485077 0.178472
vt 0.588274 0.153202
vt 0.554787 0.116545
vt 0.610612 0.112371
vt 0.536452 0.273624
vt 0.683649 0.238080
vt 0.565842 0.282930
vt 0.658666 0.217981
vt 0.581553 0.204892
vt 0.520961 0.196728
vt 0.387504 0.157709
vt 0.919471 0.282930
vt 0.423453 0.162832
vt 0.491962 0.260518
vt 0.727995 0.258031
s 0
usemtl Material.009
f 137/178/77 138/179/77 134/175/77 135/176/77
f 145/188/78 142/183/78 148/192/78 147/191/78 134/175/78 138/179/78
f 137/178/79 136/177/79 144/187/79 145/188/79 138/179/79
f 131/172/80 132/173/80 133/174/80
f 140/181/81 139/180/81 136/177/81 137/178/81 135/176/81 132/173/81 131/172/81
f 129/168/82 141/182/82 140/181/82 131/172/82 133/174/82 130/170/82
f 139/180/83 140/181/83 141/182/83
f 135/176/84 134/175/84 147/191/84 146/189/84 130/170/84 133/174/84 132/173/84
f 142/183/85 145/188/85 144/187/85 143/185/85
f 139/180/86 141/182/86 129/169/86 143/186/86 144/187/86 136/177/86
f 146/189/87 147/191/87 148/192/87
f 142/184/88 143/186/88 129/169/88 130/171/88 146/190/88 148/193/88
